<svg xmlns="http://www.w3.org/2000/svg" width="855.94" height="630.066" viewBox="0 0 855.94 630.066">
  <g id="undraw_stars_re_6je7" transform="translate(0)">
    <path id="Caminho_39" data-name="Caminho 39" d="M935.432,472.558c-3.73,43.08-22.51,84.71-49.3,119.14q-1.68,2.16-3.4,4.28-3.87,4.77-7.94,9.36-4.98,5.655-10.25,11.05-4.29,4.44-8.78,8.69-3.465,3.315-7.01,6.5c-28.43,25.69-61.09,46.89-94.74,65.43-65.67,36.17-137.65,63.57-212.52,67.56s-153.01-17.46-207.91-68.52c-73.99-68.81-94.64-183.58-64.6-280.05,19.98-64.18,60.76-122.24,116.26-160.16,55.02-37.59,124.43-54.51,190.12-43.45,52.44-31.87,121.09-32.48,178.1-8.89,30.42,12.59,57.72,31.31,81.67,53.93a339.333,339.333,0,0,1,30.72,33.23q1.455,1.785,2.88,3.6,5.97,7.545,11.55,15.4,8.01,11.265,15.21,23.03c1.32,2.16,2.63,4.33,3.91,6.52.86,1.47,1.73,2.95,2.58,4.44a.3.3,0,0,1,.04.1c13.31,23.41,24.19,48.39,29.86,74.5,1,4.62,1.84,9.26,2.49,13.94v.01q.855,5.955,1.29,11.97a176.976,176.976,0,0,1-.23,28.39Z" transform="translate(-172.03 -134.967)" fill="#3f3d56"/>
    <path id="Caminho_40" data-name="Caminho 40" d="M740.074,537.684,591.612,414.006,735.84,542.638a3.442,3.442,0,1,0,4.234-4.954Z" transform="translate(-172.03 -134.967)" fill="#f0f0f0" opacity="0.3"/>
    <circle id="Elipse_6" data-name="Elipse 6" cx="89" cy="89" r="89" transform="translate(138.582 161.781)" fill="#f2f2f2"/>
    <path id="Caminho_41" data-name="Caminho 41" d="M478.612,379.748a81.055,81.055,0,1,1-71.6-80.56,80.995,80.995,0,0,1,71.6,80.56Z" transform="translate(-172.03 -134.967)" fill="#fff"/>
    <circle id="Elipse_7" data-name="Elipse 7" cx="25" cy="25" r="25" transform="translate(186.582 192.781)" fill="#e4e4e4"/>
    <path id="Caminho_42" data-name="Caminho 42" d="M475.452,357.278a25,25,0,0,1-27.6-41.08,81.053,81.053,0,0,1,27.6,41.08Z" transform="translate(-172.03 -134.967)" fill="#f2f2f2"/>
    <circle id="Elipse_8" data-name="Elipse 8" cx="9" cy="9" r="9" transform="translate(243.582 262.781)" fill="#e4e4e4"/>
    <path id="Caminho_43" data-name="Caminho 43" d="M387.612,457.748a9.046,9.046,0,0,1-.31,2.34,79.526,79.526,0,0,1-17.49-4.24,9,9,0,0,1,17.8,1.9Z" transform="translate(-172.03 -134.967)" fill="#f2f2f2"/>
    <path id="Caminho_44" data-name="Caminho 44" d="M334.612,375.748a18,18,0,0,1-16.8,17.96A81.548,81.548,0,0,1,319.572,358,18,18,0,0,1,334.612,375.748Z" transform="translate(-172.03 -134.967)" fill="#f2f2f2"/>
    <circle id="Elipse_9" data-name="Elipse 9" cx="3.702" cy="3.702" r="3.702" transform="translate(602.755 204.781)" fill="#ff2626"/>
    <circle id="Elipse_10" data-name="Elipse 10" cx="2.163" cy="2.163" r="2.163" transform="translate(570.139 117.786)" fill="#f0f0f0"/>
    <circle id="Elipse_11" data-name="Elipse 11" cx="2.163" cy="2.163" r="2.163" transform="translate(223.139 541.785)" fill="#f0f0f0"/>
    <circle id="Elipse_12" data-name="Elipse 12" cx="2.163" cy="2.163" r="2.163" transform="translate(582.418 329.431)" fill="#f0f0f0"/>
    <circle id="Elipse_13" data-name="Elipse 13" cx="3.702" cy="3.702" r="3.702" transform="translate(301.755 346.781)" fill="#ff2626"/>
    <circle id="Elipse_14" data-name="Elipse 14" cx="17.483" cy="17.483" r="17.483" transform="translate(153.974 399)" fill="#ff2626"/>
    <circle id="Elipse_15" data-name="Elipse 15" cx="2.163" cy="2.163" r="2.163" transform="translate(265.139 433.786)" fill="#f0f0f0"/>
    <circle id="Elipse_16" data-name="Elipse 16" cx="2.163" cy="2.163" r="2.163" transform="translate(485.139 95.785)" fill="#f0f0f0"/>
    <circle id="Elipse_17" data-name="Elipse 17" cx="2.163" cy="2.163" r="2.163" transform="translate(356.139 556.785)" fill="#f0f0f0"/>
    <circle id="Elipse_18" data-name="Elipse 18" cx="2.163" cy="2.163" r="2.163" transform="translate(324.139 115.786)" fill="#f0f0f0"/>
    <circle id="Elipse_19" data-name="Elipse 19" cx="2.163" cy="2.163" r="2.163" transform="translate(380.139 220.786)" fill="#f0f0f0"/>
    <circle id="Elipse_20" data-name="Elipse 20" cx="2.163" cy="2.163" r="2.163" transform="translate(294.418 478.431)" fill="#f0f0f0"/>
    <circle id="Elipse_21" data-name="Elipse 21" cx="2.163" cy="2.163" r="2.163" transform="translate(547.418 492.431)" fill="#f0f0f0"/>
    <circle id="Elipse_22" data-name="Elipse 22" cx="2.163" cy="2.163" r="2.163" transform="translate(435.418 366.431)" fill="#f0f0f0"/>
    <circle id="Elipse_23" data-name="Elipse 23" cx="2.163" cy="2.163" r="2.163" transform="translate(492.418 220.431)" fill="#f0f0f0"/>
    <circle id="Elipse_24" data-name="Elipse 24" cx="4.289" cy="4.289" r="4.289" transform="translate(593.923 288.366)" fill="#ff6584"/>
    <circle id="Elipse_25" data-name="Elipse 25" cx="4.289" cy="4.289" r="4.289" transform="translate(419.923 146.366)" fill="#ff6584"/>
    <circle id="Elipse_26" data-name="Elipse 26" cx="4.289" cy="4.289" r="4.289" transform="translate(419.923 441.366)" fill="#ff6584"/>
    <path id="Caminho_45" data-name="Caminho 45" d="M863.452,605.338a7.694,7.694,0,0,0-7.39,5.58,7.388,7.388,0,0,0-.3,2.12v12.04q4.485-4.245,8.78-8.69,5.265-5.4,10.25-11.05Z" transform="translate(-172.03 -134.967)" fill="#ff2626"/>
    <path id="Caminho_46" data-name="Caminho 46" d="M890.681,667.9q-19.368,0-42.456-1.464c-79.614-5.056-182.738-22.633-290.376-49.492s-206.93-59.794-279.585-92.734c-35.393-16.047-62.556-31.236-80.735-45.147-19.247-14.727-27.666-27.564-25.024-38.153,5.148-20.629,50.731-25.142,88.064-25.3l.013,3c-51.268.21-81.514,8.387-85.165,23.022-4.652,18.64,33.287,47.741,104.087,79.841,72.5,32.868,171.6,65.739,279.073,92.557s210.4,44.363,289.84,49.408c77.579,4.928,124.743-2.937,129.4-21.578,3.862-15.477-21.6-38.275-71.69-64.2L907.5,575c36.4,18.836,78.646,45.852,73.222,67.589-2.643,10.589-16.106,17.965-40.015,21.923C927.076,666.767,910.336,667.9,890.681,667.9Z" transform="translate(-172.03 -134.967)" fill="#ff2626"/>
    <circle id="Elipse_27" data-name="Elipse 27" cx="100.5" cy="100.5" r="100.5" transform="translate(614.082 108.281)" fill="#fff"/>
    <path id="Caminho_47" data-name="Caminho 47" d="M886.612,241.748a101.635,101.635,0,1,0,72.232,29.768,102,102,0,0,0-72.232-29.768Zm0,201a98.618,98.618,0,1,1,70.116-28.884,99,99,0,0,1-70.116,28.884Z" transform="translate(-172.03 -134.967)" fill="#2f2e41"/>
    <path id="Caminho_48" data-name="Caminho 48" d="M798.417,367.818a2,2,0,0,1-1.957-1.6A97.669,97.669,0,0,1,818.8,283.085a2,2,0,1,1,2.986,2.661,93.6,93.6,0,0,0-21.409,79.669,2,2,0,0,1-1.961,2.4Z" transform="translate(-172.03 -134.967)" fill="#2f2e41"/>
    <circle id="Elipse_28" data-name="Elipse 28" cx="63.877" cy="63.877" r="63.877" transform="translate(650.642 174.397)" fill="#fb6f6f"/>
    <path id="Caminho_49" data-name="Caminho 49" d="M866.248,397.357c-4.141-.115-9.294-.259-13.264-3.159a10.186,10.186,0,0,1-4.008-7.606,6.852,6.852,0,0,1,2.33-5.628c2.074-1.752,5.1-2.163,8.364-1.2l-3.381-24.706,2.482-.34,3.974,29.045-2.072-.951c-2.4-1.1-5.7-1.663-7.75.069a4.4,4.4,0,0,0-1.444,3.627,7.7,7.7,0,0,0,2.982,5.671c3.089,2.257,7.2,2.548,11.856,2.678Z" transform="translate(-172.03 -134.967)" fill="#2f2e41"/>
    <rect id="Ret창ngulo_8" data-name="Ret창ngulo 8" width="13.491" height="2.505" transform="translate(658.495 222.218)" fill="#2f2e41"/>
    <rect id="Ret창ngulo_9" data-name="Ret창ngulo 9" width="13.491" height="2.505" transform="translate(701.08 222.218)" fill="#2f2e41"/>
    <path id="Caminho_50" data-name="Caminho 50" d="M889.232,452.908h-57.9a8.147,8.147,0,0,0-8.14,8.14v128.33a47.67,47.67,0,0,0,25.56,42.2q3.555-3.18,7.01-6.5,4.485-4.245,8.78-8.69,5.265-5.4,10.25-11.05,4.08-4.59,7.94-9.36,1.725-2.115,3.4-4.28c26.79-34.43,45.57-76.06,49.3-119.14a64.048,64.048,0,0,0-46.2-19.65Z" transform="translate(-172.03 -134.967)" fill="#2f2e41"/>
    <path id="Caminho_51" data-name="Caminho 51" d="M891.342,479.688a14.611,14.611,0,0,0-10.43-4.17,14.465,14.465,0,0,0-9.16,3.36,13.1,13.1,0,0,0-1.17,1.07l-47.39,48.6-34.37,35.25a6.8,6.8,0,0,0-1.28,1.8,7.3,7.3,0,0,0-.77,3.32,7.168,7.168,0,0,0,2.18,5.07l1.35,1.32,9.8,9.55.01-.01a7.291,7.291,0,0,0,4.66,1.63,7.167,7.167,0,0,0,5.07-2.18l1.59-1.62,11.38-11.67.38-.39,68.41-70.16a14.691,14.691,0,0,0-.26-20.77Z" transform="translate(-172.03 -134.967)" fill="#fb6f6f"/>
    <path id="Caminho_52" data-name="Caminho 52" d="M890.862,343.44c2.112-4.467-.053-9.238-3.764-12.091-4.676-3.6-10.722-3-16.04-1.3-5.822,1.863-11.514,5.216-17.8,5.023A11.131,11.131,0,0,1,843.01,327.8c-3.369-8.639.436-18.295,6.3-24.847a34.268,34.268,0,0,1,26.544-11.586,34.65,34.65,0,0,1,28.068,16.9,1.541,1.541,0,0,0,2.052.538,36.882,36.882,0,0,1,28.394-.714,36.29,36.29,0,0,1,22.58,34.492c-.05,1.931,2.95,1.93,3,0a39.892,39.892,0,0,0-10.6-27.812A38.719,38.719,0,0,0,921.782,302.6a39.336,39.336,0,0,0-17.322,3.612l2.052.538a37.7,37.7,0,0,0-25.1-17.728,36.485,36.485,0,0,0-29.424,7.328c-7.7,6.027-13.539,15.38-13.175,25.411.157,4.34,1.447,8.8,4.461,12.03,3.86,4.143,9.622,4.859,14.946,3.8,7.076-1.411,13.535-6.064,20.911-5.921a10.212,10.212,0,0,1,7.642,3.445c1.625,1.833,2.6,4.47,1.5,6.811-.821,1.736,1.765,3.26,2.59,1.514Z" transform="translate(-172.03 -134.967)" fill="#2f2e41"/>
    <path id="Caminho_53" data-name="Caminho 53" d="M412.094,704.323c-35.6,0-68.694-1.221-98.322-3.686-38.727-3.223-69.415-8.4-91.21-15.4-23.077-7.405-35.319-16.667-36.388-27.528-2.083-21.158,39.334-40.725,74.445-53.413l1.02,2.822c-48.217,17.424-73.957,35.286-72.479,50.3,1.882,19.119,47.392,33.781,124.862,40.227,79.325,6.6,183.717,4.262,293.947-6.59s213.076-28.906,289.591-50.846c74.726-21.426,116.505-44.68,114.623-63.8-1.562-15.874-33.2-28.793-89.092-36.379l.4-2.973c40.61,5.512,89.479,16.762,91.674,39.058,1.069,10.861-9.133,22.332-30.323,34.094-20.015,11.109-49.1,22.173-86.458,32.883-76.685,21.988-179.72,40.081-290.125,50.948C539,700.86,472.017,704.323,412.094,704.323Z" transform="translate(-172.03 -134.967)" fill="#ff2626"/>
    <circle id="Elipse_29" data-name="Elipse 29" cx="17.483" cy="17.483" r="17.483" transform="translate(820.974 417)" fill="#ff2626"/>
    <circle id="Elipse_30" data-name="Elipse 30" cx="17.483" cy="17.483" r="17.483" transform="translate(313.974 0)" fill="#e6e6e6"/>
    <circle id="Elipse_31" data-name="Elipse 31" cx="17.483" cy="17.483" r="17.483" transform="translate(1.974 416)" fill="#e6e6e6"/>
    <circle id="Elipse_32" data-name="Elipse 32" cx="10.702" cy="10.702" r="10.702" transform="translate(116.755 97.781)" fill="#ff6584"/>
    <circle id="Elipse_33" data-name="Elipse 33" cx="10.702" cy="10.702" r="10.702" transform="translate(66.754 503.781)" fill="#ff6584"/>
    <circle id="Elipse_34" data-name="Elipse 34" cx="10.702" cy="10.702" r="10.702" transform="translate(796.755 328.781)" fill="#ff6584"/>
    <circle id="Elipse_35" data-name="Elipse 35" cx="17.483" cy="17.483" r="17.483" transform="translate(627.974 581)" fill="#e6e6e6"/>
  </g>
</svg>
