<?xml version="1.0" encoding="utf-8"?>
<!-- Generator: Adobe Illustrator 24.0.1, SVG Export Plug-In . SVG Version: 6.00 Build 0)  -->
<svg version="1.1" xmlns="http://www.w3.org/2000/svg" xmlns:xlink="http://www.w3.org/1999/xlink" x="0px" y="0px"
	 viewBox="0 0 900 288" style="enable-background:new 0 0 900 288;" xml:space="preserve">
<style type="text/css">
	.st0{fill:#950700;}
	.st1{fill:#FF0F03;}
	.st2{fill:#E5E5E5;}
</style>
<g id="Camada_1">
	<polygon class="st0" points="110.8,273.31 75.49,234.2 205.76,90.38 6.09,248.08 	"/>
	<polygon class="st0" points="318.98,198.88 329.94,234.2 205.76,282.14 	"/>
	<path class="st1" d="M6.09,248.08L237.41,5.86l81.57,193.02l-10.96,10.09l1.22,16.4l-103.48,56.77l82.79-78.22
		c-22.12-42.05-44.23-84.1-66.35-126.16C150.16,134.54,78.13,191.31,6.09,248.08z"/>
	<g>
		<g>
			<path class="st2" d="M405.22,207.96c-6.26-3.72-11.1-8.97-14.52-15.76c-3.43-6.79-5.14-14.66-5.14-23.6v-34.54
				c0-8.94,1.71-16.81,5.14-23.6c3.42-6.79,8.26-12.04,14.52-15.76c6.26-3.72,13.48-5.57,21.68-5.57c8.2,0,15.42,1.86,21.68,5.57
				c6.26,3.72,11.1,8.97,14.52,15.76c3.42,6.79,5.14,14.66,5.14,23.6v34.54c0,8.94-1.71,16.81-5.14,23.6
				c-3.43,6.79-8.27,12.04-14.52,15.76c-6.26,3.72-13.48,5.58-21.68,5.58C418.7,213.53,411.48,211.67,405.22,207.96z M439.73,193.29
				c3.69-2.26,6.55-5.48,8.58-9.64c2.02-4.16,3.03-8.98,3.03-14.46v-35.71c0-5.48-1.01-10.3-3.03-14.46
				c-2.02-4.16-4.88-7.38-8.58-9.64c-3.69-2.26-7.97-3.4-12.82-3.4s-9.13,1.13-12.82,3.4c-3.69,2.26-6.55,5.48-8.58,9.64
				c-2.02,4.16-3.03,8.98-3.03,14.46v35.71c0,5.48,1.01,10.3,3.03,14.46c2.02,4.16,4.88,7.38,8.58,9.64
				c3.69,2.26,7.97,3.39,12.82,3.39S436.03,195.55,439.73,193.29z"/>
			<path class="st2" d="M493.32,125.26h16.5v87.02h-16.5V125.26z M534.02,141.69c-2.21-0.95-4.77-1.42-7.69-1.42
				c-5.23,0-9.29,1.5-12.17,4.48c-2.89,2.99-4.33,7.14-4.33,12.45l-1.7-16.77c2.59-5.2,5.93-9.23,10.03-12.11
				c4.1-2.88,8.63-4.32,13.59-4.32c3.83,0,7.29,0.57,10.4,1.72c3.1,1.15,5.81,2.84,8.13,5.07l-10.76,15.09
				C538.06,144.04,536.23,142.64,534.02,141.69z"/>
			<path class="st2" d="M564.03,90.38h16.5v121.89h-16.5V90.38z M587.98,209.63c-3.88-2.6-6.74-6.27-8.58-11.02l1.13-18.19
				c0,3.74,0.65,6.93,1.94,9.56c1.29,2.63,3.17,4.64,5.62,6.04c2.45,1.4,5.43,2.1,8.94,2.1c5.45,0,9.67-1.72,12.66-5.16
				c2.99-3.44,4.49-8.29,4.49-14.54v-18.86c0-6.37-1.5-11.32-4.49-14.84c-2.99-3.52-7.21-5.28-12.66-5.28
				c-3.51,0-6.49,0.67-8.94,2.01c-2.45,1.34-4.33,3.31-5.62,5.91c-1.29,2.6-1.94,5.72-1.94,9.35l-1.7-16.77
				c2.53-5.08,5.85-9.01,9.95-11.78c4.1-2.77,8.66-4.15,13.67-4.15c5.93,0,11.01,1.38,15.25,4.15c4.23,2.77,7.46,6.8,9.67,12.11
				c2.21,5.31,3.32,11.71,3.32,19.2v18.95c0,7.38-1.13,13.69-3.4,18.95c-2.26,5.25-5.58,9.26-9.95,12.03
				c-4.37,2.77-9.6,4.15-15.7,4.15C596.42,213.53,591.86,212.23,587.98,209.63z"/>
			<path class="st2" d="M647.68,125.26h37.86v15.42h-37.86V125.26z M661.07,206.87c-3.16-3.88-4.73-9.63-4.73-17.23v-89.7h16.5
				v89.87c0,2.13,0.4,3.76,1.21,4.9c0.81,1.15,1.99,1.72,3.56,1.72h7.93v16.26H676C669.2,212.69,664.23,210.75,661.07,206.87z"/>
		</g>
	</g>
</g>
<g id="Camada_2">
</g>
</svg>
