<?xml version="1.0" standalone="no"?>
<!DOCTYPE svg PUBLIC "-//W3C//DTD SVG 20010904//EN"
 "http://www.w3.org/TR/2001/REC-SVG-20010904/DTD/svg10.dtd">
<svg version="1.0" xmlns="http://www.w3.org/2000/svg"
 width="640.000000pt" height="640.000000pt" viewBox="0 0 640.000000 640.000000"
 preserveAspectRatio="xMidYMid meet">
<metadata>
Created by potrace 1.14, written by Peter Selinger 2001-2017
</metadata>
<g transform="translate(0.000000,640.000000) scale(0.100000,-0.100000)"
fill="#000000" stroke="none">
<path d="M4495 5754 c-38 -40 -455 -461 -927 -936 -471 -475 -1004 -1012
-1185 -1194 -806 -814 -1995 -2013 -2177 -2196 -109 -110 -194 -204 -190 -208
5 -5 23 -11 39 -14 17 -2 39 -7 50 -9 35 -9 199 -48 225 -54 14 -3 32 -8 40
-9 8 -2 132 -31 275 -65 143 -33 270 -63 283 -65 13 -3 79 -18 147 -34 68 -16
134 -31 147 -34 13 -2 41 -9 63 -14 22 -6 51 -13 65 -16 70 -15 146 -33 370
-86 47 -11 123 -29 170 -39 47 -11 101 -24 120 -30 19 -6 42 -11 50 -11 13 0
13 1 0 10 -8 5 -12 10 -9 10 4 0 -12 20 -35 43 -22 24 -99 106 -171 182 -71
76 -157 167 -190 201 -121 126 -270 287 -272 293 -2 3 33 44 77 90 44 46 80
85 80 86 0 2 26 29 58 62 31 33 109 115 172 182 63 67 140 149 170 181 99 105
267 284 300 320 34 37 201 215 297 316 49 52 101 108 313 334 14 14 86 91 160
170 74 79 146 155 160 170 146 156 282 301 315 335 22 24 94 100 160 171 66
70 131 140 145 154 14 15 55 59 92 98 37 38 93 90 125 114 32 23 62 47 68 51
80 63 182 137 190 137 6 0 30 -37 53 -82 24 -46 51 -96 61 -113 16 -27 221
-401 301 -550 18 -33 41 -73 50 -90 10 -16 39 -70 65 -120 27 -49 63 -116 81
-148 19 -32 34 -60 34 -62 0 -2 16 -32 36 -67 20 -34 54 -97 76 -138 67 -124
73 -135 78 -140 3 -3 18 -30 33 -60 16 -30 39 -75 53 -100 14 -25 41 -74 60
-110 20 -36 45 -83 58 -105 40 -72 93 -169 126 -230 30 -56 60 -110 116 -213
13 -23 24 -48 24 -55 0 -7 -28 -37 -62 -67 -33 -30 -75 -68 -93 -85 -17 -16
-69 -64 -115 -105 -45 -41 -97 -88 -115 -105 -114 -104 -211 -192 -227 -207
-34 -30 -190 -172 -214 -196 -13 -12 -29 -22 -35 -22 -7 0 -10 -3 -6 -6 3 -3
-18 -27 -46 -52 -29 -25 -57 -51 -63 -56 -6 -6 -44 -40 -84 -76 -40 -36 -89
-81 -110 -100 -21 -19 -70 -64 -110 -100 -40 -36 -89 -81 -110 -100 -63 -59
-123 -113 -168 -153 -23 -20 -39 -37 -35 -37 5 0 1 -5 -7 -11 -12 -9 -12 -10
3 -5 10 3 23 6 28 6 6 0 7 6 3 13 -5 9 -4 9 6 0 10 -9 21 -8 51 8 21 10 43 19
48 19 5 0 22 5 38 12 15 6 30 12 33 13 3 1 16 6 30 12 14 6 45 18 70 26 25 9
117 44 205 77 88 34 167 63 175 64 8 2 31 11 50 19 35 15 68 27 73 26 1 -1 28
10 60 24 31 14 57 23 57 20 0 -3 6 -1 12 4 7 6 27 15 43 21 87 30 301 110 755
282 135 51 256 96 270 100 14 5 108 40 210 79 102 39 191 71 198 71 9 0 11 7
7 19 -3 11 -8 28 -10 38 -2 10 -26 83 -53 163 -27 80 -71 213 -97 295 -27 83
-52 152 -56 155 -3 3 -6 12 -6 20 -1 12 -66 166 -173 405 -29 65 -198 451
-252 575 -28 63 -58 133 -69 155 -10 22 -50 114 -90 205 -39 91 -82 188 -94
215 -12 28 -62 140 -109 250 -48 110 -101 228 -117 262 -16 35 -29 64 -29 67
0 2 -8 21 -17 42 -9 22 -17 41 -18 44 -2 5 -47 107 -65 145 -5 11 -46 103 -90
205 -44 102 -85 194 -90 205 -53 119 -70 157 -70 160 0 3 -13 33 -29 67 -15
35 -50 113 -76 173 -44 102 -67 155 -101 230 -7 17 -34 77 -59 135 -25 58 -49
107 -53 110 -4 3 -38 -27 -77 -66z"/>
</g>
</svg>
