<svg xmlns="http://www.w3.org/2000/svg" width="80.064" height="65.827" viewBox="0 0 80.064 65.827">
  <g id="Camada_x0020_1" transform="translate(-114.2 -16.4)">
    <g id="_2030312284672" transform="translate(114.2 16.4)">
      <path id="Caminho_54" data-name="Caminho 54" d="M166.214,64.9l-34.729,36.994c2.912,3.092,5.86,6.184,8.772,9.311-8.664-2.013-17.293-4.027-25.957-6.04A233.4,233.4,0,0,1,131.629,89.1,238.611,238.611,0,0,1,166.214,64.9Z" transform="translate(-114.264 -47.464)" fill="#960a03"/>
      <path id="Caminho_55" data-name="Caminho 55" d="M279.6,144.3c-1.366.611-2.768,1.186-4.134,1.8.144,1.043.324,2.121.467,3.164-8.089,4.961-16.142,9.923-24.231,14.884l30.631-11.5Z" transform="translate(-202.267 -98.318)" fill="#960a03"/>
      <path id="Caminho_56" data-name="Caminho 56" d="M163.6,82.119l20.385-18.587L167.588,33.549,114.2,74.1q28.581-28.851,57.2-57.7,10.03,22.919,20.1,45.838l-2.553,2.553.324,3.811L163.6,82.119Z" transform="translate(-114.2 -16.4)" fill="#ff0f03"/>
    </g>
  </g>
</svg>
